<svg width="50" height="51" viewBox="0 0 50 51" fill="none" xmlns="http://www.w3.org/2000/svg">
<path d="M29.0123 34.9217C29.6492 34.9217 30.1844 34.7051 30.6181 34.2718C31.0512 33.8381 31.2677 33.3027 31.2677 32.6657C31.2677 32.0281 31.0512 31.4928 30.6181 31.0595C30.1844 30.6263 29.6492 30.4096 29.0123 30.4096C28.3755 30.4096 27.8403 30.6263 27.4066 31.0595C26.9735 31.4928 26.7569 32.0281 26.7569 32.6657C26.7569 33.3027 26.9735 33.8381 27.4066 34.2718C27.8403 34.7051 28.3755 34.9217 29.0123 34.9217ZM27.7245 26.6926H30.3002C30.3794 25.3985 30.5448 24.4496 30.7963 23.8461C31.0473 23.2425 31.6952 22.4836 32.74 21.5692C33.5826 20.8962 34.4282 20.0552 35.277 19.0461C36.1258 18.0366 36.5502 16.7739 36.5502 15.2581C36.5502 13.1798 35.8377 11.4728 34.4128 10.137C32.9879 8.80127 31.1878 8.13339 29.0123 8.13339C27.4532 8.13339 26.0208 8.55789 24.7153 9.40689C23.4092 10.2559 22.4079 11.4638 21.7114 13.0306L24.0625 14.1065C24.5409 13.0018 25.1986 12.1605 26.0355 11.5827C26.8724 11.0048 27.8647 10.7159 29.0123 10.7159C30.4388 10.7159 31.6224 11.1394 32.5633 11.9863C33.5041 12.8338 33.9745 13.8966 33.9745 15.1747C33.9745 16.3741 33.546 17.4122 32.689 18.289C31.8326 19.1658 30.9077 20.0356 29.9144 20.8985C29.1782 21.571 28.6294 22.3814 28.2677 23.3297C27.9056 24.2775 27.7245 25.3985 27.7245 26.6926ZM12.3935 42.521C11.1425 42.521 10.1016 42.1055 9.27083 41.2745C8.44007 40.4435 8.02469 39.4024 8.02469 38.151V4.9041C8.02469 3.65272 8.44007 2.61154 9.27083 1.78055C10.1016 0.949556 11.1425 0.534058 12.3935 0.534058H45.6312C46.8822 0.534058 47.9231 0.949556 48.7539 1.78055C49.5846 2.61154 50 3.65272 50 4.9041V38.151C50 39.4024 49.5846 40.4435 48.7539 41.2745C47.9231 42.1055 46.8822 42.521 45.6312 42.521H12.3935ZM12.3935 40.0512H45.6312C46.1065 40.0512 46.5419 39.8534 46.9375 39.4577C47.3331 39.062 47.5309 38.6264 47.5309 38.151V4.9041C47.5309 4.42866 47.3331 3.99309 46.9375 3.59741C46.5419 3.20172 46.1065 3.00388 45.6312 3.00388H12.3935C11.9182 3.00388 11.4828 3.20172 11.0872 3.59741C10.6916 3.99309 10.4938 4.42866 10.4938 4.9041V38.151C10.4938 38.6264 10.6916 39.062 11.0872 39.4577C11.4828 39.8534 11.9182 40.0512 12.3935 40.0512ZM4.36883 50.5479C3.1178 50.5479 2.0769 50.1324 1.24614 49.3015C0.41538 48.4705 0 47.4295 0 46.1787V10.4612H2.46914V46.1787C2.46914 46.6536 2.66692 47.0889 3.0625 47.4846C3.45808 47.8803 3.89352 48.0781 4.36883 48.0781H40.0756V50.5479H4.36883Z" fill="#747486"/>
</svg>
